PathFileType	3	(X/Y/Z)	RCH0000002 BBF 08.c3d
DataRate	CameraRate	NumFrames	NumMarkers	Units	OrigDataRate	OrigDataStartFrame	OrigNumFrames
100.0	100.0	13	23	mm	100.0	241	516
Frame#	Time	MAN			LASI			RASI			LPAT			LKNE			LANK			LMED			LTOE			RKNE			RANK			RMED			RHEE			RTOE			LHEE			RPAT			RPSI			T2			LPSI			T10			RTHI			LTHI			RTIB			LTIB			
		X1	Y1	Z1	X2	Y2	Z2	X3	Y3	Z3	X4	Y4	Z4	X5	Y5	Z5	X6	Y6	Z6	X7	Y7	Z7	X8	Y8	Z8	X9	Y9	Z9	X10	Y10	Z10	X11	Y11	Z11	X12	Y12	Z12	X13	Y13	Z13	X14	Y14	Z14	X15	Y15	Z15	X16	Y16	Z16	X17	Y17	Z17	X18	Y18	Z18	X19	Y19	Z19	X20	Y20	Z20	X21	Y21	Z21	X22	Y22	Z22	X23	Y23	Z23	

241	2.400	-527.79340	19.34011	932.79477	-533.10616	27.36839	622.97606	-559.01610	-145.19568	650.19063	-451.62993	-35.33465	389.26771	-473.64647	28.47541	339.32337	-502.58838	50.99085	70.06209	-504.17682	-20.24199	80.20416	-453.82996	14.51128	69.66959	-700.00616	-148.27224	342.00073	-845.12110	-147.16209	103.82621	-852.03725	-81.10511	124.46605	-872.29338	-122.07361	155.99377	-816.94433	-104.52551	72.45623	-546.30449	10.35483	92.26459	-641.78980	-97.98707	352.81608	-658.40255	-67.41311	692.43573	-655.16762	-6.00486	964.21327	-650.97082	2.63894	678.01132	-643.03869	-22.18668	775.86590	-649.06719	-217.72689	441.63562	-508.75606	104.33710	455.44472	-766.40462	-214.92961	240.39549	-480.98840	100.27955	230.64190	
242	2.410	-516.31902	19.72298	932.56052	-521.14704	27.94973	623.73548	-545.73472	-144.96574	647.61227	-445.49038	-33.81752	386.34373	-468.20003	30.11611	337.21063	-501.22065	52.31447	68.13741	-503.49274	-18.83003	78.83583	-452.76676	15.28543	67.73481	-683.71932	-146.92507	338.69980	-836.21518	-147.08041	106.21570	-842.30683	-80.89596	126.63154	-860.80155	-121.57525	159.38573	-810.09705	-104.67591	72.98879	-544.98914	12.15942	91.09482	-624.63631	-97.29988	349.06647	-645.36897	-68.95809	691.62744	-643.99770	-4.75497	963.09053	-638.41888	1.32953	678.73930	-629.84387	-23.40825	775.09307	-634.34506	-216.70234	438.90273	-500.25367	105.71951	454.43882	-752.64036	-214.02857	240.06294	-476.77597	101.68878	228.40675	
243	2.420	-504.90644	19.87722	932.72655	-509.71132	28.86250	624.98228	-532.44516	-144.46694	645.22077	-440.09456	-31.34954	384.06315	-463.73850	32.54255	335.76618	-500.62248	54.20250	66.78080	-503.55633	-16.84320	78.11586	-452.52761	16.60652	66.30133	-666.44888	-145.42791	335.42674	-826.19280	-146.87863	109.01290	-831.45276	-80.54496	129.06818	-848.15957	-120.87500	163.03700	-802.14012	-104.79879	73.96312	-544.43052	14.55143	90.57261	-606.61263	-96.39311	345.53983	-632.51411	-70.68110	691.20377	-632.86989	-3.87034	962.40927	-626.26213	-0.16116	679.98739	-616.79755	-24.86242	774.77431	-618.80833	-215.47966	436.28306	-492.85406	107.75892	454.05204	-737.75624	-212.98143	239.93046	-473.51348	103.84433	226.71127	
244	2.430	-493.58748	19.79246	933.29683	-498.80760	30.08340	626.66987	-519.24295	-143.69921	643.10280	-435.45286	-28.06143	382.41165	-460.24581	35.65125	334.97076	-500.49179	56.52543	65.93875	-504.05617	-14.41053	77.98130	-452.79675	18.36214	65.34238	-648.30700	-143.81040	332.32861	-815.03511	-146.56327	112.22443	-819.45146	-80.05612	131.78103	-834.42787	-119.97336	166.92909	-792.94729	-104.90868	75.42927	-544.35035	17.39637	90.60001	-587.85115	-95.28110	342.40594	-619.90075	-72.48815	691.18243	-621.80591	-3.38697	962.19544	-614.52363	-1.74721	681.72087	-603.97431	-26.48988	774.92276	-602.56792	-214.08676	433.91271	-486.51096	110.36871	454.26351	-721.85137	-211.80709	240.09012	-471.08874	106.64092	225.52043	
245	2.440	-482.39120	19.46884	934.26342	-488.42020	31.57639	628.73196	-506.21283	-142.67376	641.33742	-431.54941	-24.13648	381.33219	-457.67596	39.29476	334.76244	-500.61125	59.10761	65.53605	-504.74148	-11.70564	78.34133	-453.32413	20.40793	64.80652	-629.41604	-142.10740	329.55223	-802.72767	-146.15025	115.82310	-806.29113	-79.44611	134.75191	-819.67941	-118.89045	171.01994	-782.39755	-105.02029	77.40385	-544.53513	20.50125	91.06229	-568.48897	-93.98706	339.82916	-607.57582	-74.28040	691.56508	-610.82658	-3.32082	962.45593	-603.20349	-3.33656	683.88399	-591.43607	-28.22161	775.53168	-585.75091	-212.55980	431.92665	-481.13554	113.42453	455.00988	-705.03109	-210.53327	240.62093	-469.42665	109.92193	224.77272	
246	2.450	-471.34164	18.91682	935.60475	-478.51367	33.29558	631.08696	-493.42498	-141.41252	639.98871	-428.33758	-19.79457	380.73928	-455.94658	43.29361	335.04975	-500.84329	61.75050	65.48975	-505.42496	-8.92488	79.09069	-453.92752	22.58512	64.62730	-609.90257	-140.35609	327.23211	-789.25989	-145.66080	119.74387	-791.97183	-78.74023	137.93541	-803.99207	-117.66153	175.24107	-770.38403	-105.14425	79.86429	-544.83373	23.64009	91.84413	-548.66022	-92.54109	337.95458	-595.57039	-75.96323	692.33561	-599.95037	-3.66608	963.17705	-592.28325	-4.83981	686.40243	-579.22999	-29.98389	776.57390	-568.49449	-210.94034	430.44634	-476.60140	116.77590	456.19529	-687.40053	-209.19298	241.57809	-468.47473	113.49620	224.39321	
247	2.460	-460.45597	18.15622	937.28461	-469.03858	35.18886	633.64361	-480.93235	-139.94645	639.09943	-425.73846	-15.27057	380.53396	-454.93686	47.45265	335.72593	-501.11455	64.25814	65.72116	-505.97828	-6.26289	80.12294	-454.48636	24.73866	64.73239	-589.89159	-138.59320	325.47958	-774.62513	-145.11722	123.88448	-776.50512	-77.96781	141.25820	-787.44113	-116.33119	179.49799	-756.82271	-105.28403	82.74758	-545.14710	26.58398	92.84354	-528.48959	-90.97823	336.89610	-583.90089	-77.45497	693.45971	-589.19202	-4.39499	964.32445	-581.73150	-6.17913	689.18733	-567.38767	-31.70375	778.00277	-550.93886	-209.27231	429.56839	-472.75332	120.26114	457.70420	-669.05905	-207.82063	242.98491	-468.18350	117.15910	224.30513	
248	2.470	-449.74307	17.21451	939.25231	-459.93785	37.20179	636.30716	-468.76939	-138.31309	638.68640	-423.64278	-10.79007	380.61664	-454.49109	51.57989	336.68189	-501.39500	66.46122	66.16362	-506.32306	-3.88908	81.34129	-454.93040	26.73382	65.05105	-569.50119	-136.85261	324.37475	-758.82139	-144.53956	128.11153	-759.91320	-77.15797	144.62208	-770.09285	-114.94727	183.67431	-741.65944	-105.43476	85.95429	-545.41420	29.13121	93.98097	-508.08747	-89.33649	336.72792	-572.57094	-78.69420	694.88582	-578.56154	-5.45954	965.84454	-571.50979	-7.29580	692.14029	-555.92545	-33.31431	779.75471	-533.21953	-207.59905	429.35595	-469.41912	123.72329	459.41498	-650.09606	-206.44852	244.82906	-468.48733	120.71481	224.43838	
249	2.480	-439.20292	16.12468	941.44394	-451.15271	39.28121	638.98544	-456.95211	-136.55364	638.73848	-421.91643	-6.54679	380.89594	-454.42772	55.50502	337.81597	-501.67681	68.23679	66.76536	-506.42018	-1.92827	82.66571	-455.22607	28.46936	65.51894	-548.83802	-135.16365	323.96199	-741.85256	-143.94363	132.27109	-742.22757	-76.33640	147.91057	-752.00029	-113.55525	187.63941	-724.87440	-105.58433	89.35737	-545.59788	31.13309	95.20233	-487.54705	-87.65483	337.48062	-561.57377	-79.64469	696.54742	-568.06358	-6.79474	967.66745	-561.57810	-8.15551	695.15881	-544.84566	-34.75946	781.75298	-515.45953	-205.96069	429.83394	-466.42303	127.02469	461.21209	-630.58844	-205.10400	247.06368	-469.29095	123.99704	224.73426	
250	2.490	-428.82673	14.92262	943.78484	-442.62750	41.37826	641.59419	-445.47949	-134.71001	639.21704	-420.40948	-2.68531	381.29317	-454.55288	59.09492	339.04009	-501.95682	69.52107	67.48801	-506.25949	-0.44795	84.03572	-455.36355	29.88579	66.08070	-527.99363	-133.54991	324.24935	-723.72983	-143.34060	136.20278	-723.48718	-75.52344	150.99843	-733.20164	-112.19409	191.25869	-706.48326	-105.71638	92.81474	-545.67343	32.51188	96.47646	-466.94352	-85.97095	339.14187	-550.89461	-80.29722	698.36647	-557.69707	-8.32338	969.71119	-551.89905	-8.75050	698.14175	-534.13861	-35.99740	783.91247	-497.76200	-204.39180	430.98849	-463.59886	130.05835	462.99558	-610.59973	-203.80789	249.61349	-470.46447	126.88519	225.14669	
251	2.500	-418.59772	13.64452	946.19308	-434.31299	43.45045	644.06123	-434.33589	-132.82218	640.05911	-418.96764	0.70838	381.74320	-454.67612	62.26391	340.28234	-502.22493	70.31374	68.30258	-505.85122	0.54611	85.40968	-455.34611	30.96802	66.69053	-507.04232	-132.02856	325.21176	-704.47303	-142.73785	139.75515	-703.73624	-74.73362	153.76265	-713.72104	-110.89366	194.40502	-686.53501	-105.81453	96.18375	-545.62135	33.26814	97.78889	-446.33522	-84.31888	341.66157	-540.51305	-80.66839	700.25774	-547.45541	-9.96172	971.88668	-542.44057	-9.09859	700.99438	-523.78479	-37.00283	786.14489	-480.20434	-202.91949	432.77061	-460.80122	132.75451	464.68699	-590.18072	-202.57394	252.38460	-471.84745	129.31401	225.64087	
252	2.510	-408.49247	12.32434	948.58361	-426.16789	45.46283	646.32933	-423.49426	-130.92619	641.18264	-417.44513	3.60752	382.19306	-454.62588	64.97731	341.48709	-502.45915	70.67331	69.18463	-505.21937	1.10579	86.76152	-455.18275	31.74224	67.31153	-486.04042	-130.61009	326.79704	-684.11143	-142.14087	142.80000	-683.02182	-73.97644	156.09337	-693.57124	-109.67402	196.96974	-665.10701	-105.86686	99.33535	-545.42428	33.47662	99.13403	-425.76631	-82.72654	344.96006	-530.40500	-80.79663	702.13361	-537.32684	-11.62561	974.10310	-533.17690	-9.23924	703.63275	-513.75733	-37.76760	788.36397	-462.83453	-201.56191	435.10342	-457.91303	135.08237	466.23178	-569.37138	-201.40949	255.27630	-473.26074	131.27552	226.19051	
253	2.520	-398.48274	10.99166	950.87283	-418.15877	47.38829	648.35758	-412.91958	-129.05286	642.49313	-415.71677	6.03740	382.59990	-454.26237	67.24843	342.61375	-502.62666	70.70468	70.11045	-504.39694	1.32894	88.07651	-454.88410	32.26783	67.91465	-465.02759	-129.29847	328.93393	-662.68372	-141.55537	145.24356	-661.39144	-73.25795	157.90337	-672.75737	-108.54635	198.87152	-642.29807	-105.86963	102.16603	-545.06729	33.27176	100.50806	-405.27066	-81.21354	348.93804	-520.54414	-80.73624	703.90885	-527.29514	-13.23657	976.27313	-524.08807	-9.22754	705.98703	-504.02411	-38.30002	790.49023	-445.67075	-200.32737	437.89160	-454.84864	137.04692	467.59861	-548.20332	-200.31685	258.19280	-474.52325	132.81331	226.77461	
